<svg width="20" height="20" viewBox="0 0 20 20" fill="none" xmlns="http://www.w3.org/2000/svg">
<g clip-path="url(#clip0_2864_4655)">
<path d="M10.7707 6.14567H9.229V9.229H6.14567V10.7707H9.229V13.854H10.7707V10.7707H13.854V9.229H10.7707V6.14567ZM9.99984 2.2915C5.74484 2.2915 2.2915 5.74484 2.2915 9.99984C2.2915 14.2548 5.74484 17.7082 9.99984 17.7082C14.2548 17.7082 17.7082 14.2548 17.7082 9.99984C17.7082 5.74484 14.2548 2.2915 9.99984 2.2915ZM9.99984 16.1665C6.60046 16.1665 3.83317 13.3992 3.83317 9.99984C3.83317 6.60046 6.60046 3.83317 9.99984 3.83317C13.3992 3.83317 16.1665 6.60046 16.1665 9.99984C16.1665 13.3992 13.3992 16.1665 9.99984 16.1665Z" fill="black"/>
</g>
<defs>
<clipPath id="clip0_2864_4655">
<rect width="18.5" height="18.5" fill="white" transform="translate(0.75 0.75)"/>
</clipPath>
</defs>
</svg>
