<svg width="18" height="20" viewBox="0 0 18 20" fill="none" xmlns="http://www.w3.org/2000/svg">
<path d="M16 2H15V0H13V2H5V0H3V2H2C1.73786 2.00013 1.47833 2.05202 1.2363 2.1527C0.994268 2.25338 0.7745 2.40086 0.589606 2.58668C0.404713 2.77251 0.258334 2.99301 0.15887 3.23554C0.0594061 3.47808 0.00881501 3.73787 0.00999999 4L0 18C0 18.5304 0.210714 19.0391 0.585786 19.4142C0.960859 19.7893 1.46957 20 2 20H16C16.5299 19.9984 17.0377 19.7872 17.4125 19.4125C17.7872 19.0377 17.9984 18.5299 18 18V4C17.9984 3.47005 17.7872 2.96227 17.4125 2.58753C17.0377 2.2128 16.5299 2.00158 16 2ZM16 18H2V7H16V18ZM4 9H9V14H4V9Z" fill="#8B8E90"/>
</svg>
